<svg version="1.1" id="Layer_1" xmlns="http://www.w3.org/2000/svg" xmlns:xlink="http://www.w3.org/1999/xlink" x="0px" y="0px" viewBox="0 0 500 500" style="width: 158px;" xml:space="preserve" data-imageid="credit-card-39" imageName="Credit Card" class="illustrations_image">
<style type="text/css">
	.st0_credit-card-39{fill:#FFC9B0;}
	.st1_credit-card-39{fill:#093F68;}
	.st2_credit-card-39{fill:#68E1FD;}
	.st3_credit-card-39{fill:#FFBC0E;}
	.st4_credit-card-39{fill:#F56132;}
	.st5_credit-card-39{fill:#FFFFFF;}
</style>
<g id="card_credit-card-39">
	<path class="st0_credit-card-39" d="M184.8,364.7c0,0-4.3-61.1,0-77.6s15.5-32.3,15.5-32.3s-12.9-14.7-11.8-29.4s16.8-24.3,22.8-29.5&#xA;&#9;&#9;s82.4-10.8,87.9,0s24.6,61.4,18.9,81.3s-29.8,48.4-31.5,65.6s0,25.4,0,25.4L184.8,364.7z"/>
	<path class="st1_credit-card-39" d="M286.7,370.1L286.7,370.1l-102-3.5c-1,0-1.7-0.8-1.8-1.7c-0.2-2.5-4.3-61.6,0.1-78.2&#xA;&#9;&#9;c3.7-14.2,12.3-27.7,15-31.7c-3.1-3.8-12.3-16.6-11.3-29.6s12.9-22.4,20-28c1.3-1,2.5-1.9,3.4-2.8c5.7-4.9,58.3-9,79.8-4.9&#xA;&#9;&#9;c6.2,1.2,9.7,2.9,11,5.4c5.6,10.9,24.9,62.2,19.1,82.7c-2.7,9.4-9.3,20.6-15.8,31.5c-7.3,12.3-14.8,25-15.7,33.8&#xA;&#9;&#9;c-1.7,16.6,0,24.7,0,24.8c0.1,0.6,0,1.1-0.4,1.6C287.8,369.9,287.2,370.1,286.7,370.1z M186.5,362.9l98,3.4&#xA;&#9;&#9;c-0.4-3.6-0.9-11.4,0.3-23.6c1-9.7,8.4-22.1,16.2-35.4c6.3-10.6,12.8-21.6,15.4-30.6c5.5-19.1-13.5-69.7-18.8-79.9&#xA;&#9;&#9;c-0.3-0.6-1.8-2.2-8.4-3.5c-22.4-4.3-72.6,0.5-76.7,4c-1,0.8-2.2,1.8-3.6,2.9c-7.1,5.5-17.7,13.8-18.6,25.4&#xA;&#9;&#9;c-1.1,13.7,11.2,27.9,11.3,28c0.6,0.6,0.6,1.6,0.1,2.3c-0.1,0.2-11,15.8-15.2,31.7C182.8,302.1,185.9,353,186.5,362.9L186.5,362.9z&#xA;&#9;&#9;"/>
	<path class="st2_credit-card-39 targetColor" d="M154.5,89.8h191.1c6.8,0,12.3,5.5,12.3,12.3v103.3c0,6.8-5.5,12.3-12.3,12.3H154.5c-6.8,0-12.3-5.5-12.3-12.3&#xA;&#9;&#9;V102.2C142.2,95.4,147.7,89.8,154.5,89.8z" style="fill: rgb(104, 225, 253);"/>
	<path class="st1_credit-card-39" d="M344.8,219.6H155.2c-8.2,0-14.8-6.7-14.8-14.9V102.8c0-8.2,6.6-14.8,14.8-14.8h189.7c8.2,0,14.8,6.7,14.8,14.8&#xA;&#9;&#9;v101.9C359.7,212.9,353,219.6,344.8,219.6z M155.2,91.7c-6.2,0-11.2,5-11.2,11.1c0,0,0,0,0,0v101.9c0,6.1,5,11.1,11.1,11.1h189.7&#xA;&#9;&#9;c6.2,0,11.1-5,11.2-11.1c0,0,0,0,0,0V102.8c0-6.2-5-11.1-11.2-11.1l0,0H155.2z"/>
	<circle class="st3_credit-card-39" cx="292" cy="130.2" r="15.2"/>
	<path class="st1_credit-card-39" d="M292,147.2c-9.4,0-17-7.6-17-17s7.6-17,17-17s17,7.6,17,17l0,0C309,139.6,301.4,147.2,292,147.2z M292,116.9&#xA;&#9;&#9;c-7.4,0-13.3,5.9-13.3,13.3c0,7.4,5.9,13.3,13.3,13.3c7.4,0,13.3-5.9,13.3-13.3c0,0,0,0,0,0C305.3,122.8,299.3,116.9,292,116.9z"/>
	<circle class="st4_credit-card-39" cx="315.7" cy="130.2" r="15.2"/>
	<path class="st1_credit-card-39" d="M315.7,147.2c-9.4,0-17-7.6-17-17s7.6-17,17-17s17,7.6,17,17l0,0C332.7,139.6,325.1,147.2,315.7,147.2z&#xA;&#9;&#9; M315.7,116.9c-7.4,0-13.3,5.9-13.3,13.3c0,7.4,5.9,13.3,13.3,13.3c7.4,0,13.3-5.9,13.3-13.3c0,0,0,0,0,0&#xA;&#9;&#9;C329,122.8,323.1,116.9,315.7,116.9z"/>
	<path class="st1_credit-card-39" d="M187.8,147.1h-14.5c-5.4,0-9.7-4.4-9.7-9.7v-14.5c0-5.4,4.4-9.7,9.7-9.7h14.5c5.4,0,9.7,4.4,9.7,9.7v14.5&#xA;&#9;&#9;C197.5,142.8,193.1,147.1,187.8,147.1z M173.3,116.9c-3.3,0-6,2.7-6,6v14.5c0,3.3,2.7,6,6,6h14.5c3.3,0,6-2.7,6-6v-14.5&#xA;&#9;&#9;c0-3.3-2.7-6-6-6L173.3,116.9z"/>
	<path class="st1_credit-card-39" d="M201.2,194.4h-35.8c-1,0-1.9-0.8-1.9-1.8c0,0,0,0,0,0v-15.3c0-1,0.8-1.9,1.9-1.9l0,0h35.8c1,0,1.9,0.8,1.9,1.9&#xA;&#9;&#9;l0,0v15.3C203.1,193.6,202.2,194.4,201.2,194.4C201.2,194.4,201.2,194.4,201.2,194.4z M167.2,190.7h32.1v-11.6h-32.1L167.2,190.7z"/>
	<path class="st1_credit-card-39" d="M245.7,194.4h-35.8c-1,0-1.9-0.8-1.9-1.8v0v-15.3c0-1,0.8-1.9,1.8-1.9c0,0,0,0,0,0h35.8c1,0,1.9,0.8,1.9,1.9&#xA;&#9;&#9;l0,0v15.3C247.5,193.6,246.7,194.4,245.7,194.4z M211.7,190.7h32.1v-11.6h-32.1L211.7,190.7z"/>
	<path class="st1_credit-card-39" d="M290.1,194.4h-35.8c-1,0-1.9-0.8-1.9-1.9v-15.3c0-1,0.8-1.9,1.9-1.9l0,0h35.8c1,0,1.9,0.8,1.9,1.8c0,0,0,0,0,0&#xA;&#9;&#9;v15.3C292,193.6,291.2,194.4,290.1,194.4L290.1,194.4z M256.1,190.7h32.1v-11.6h-32.1L256.1,190.7z"/>
	<path class="st1_credit-card-39" d="M334.6,194.4h-35.8c-1,0-1.9-0.8-1.9-1.8c0,0,0,0,0,0v-15.3c0-1,0.8-1.9,1.9-1.9h35.8c1,0,1.9,0.8,1.9,1.9&#xA;&#9;&#9;v15.3C336.5,193.6,335.6,194.4,334.6,194.4C334.6,194.4,334.6,194.4,334.6,194.4z M300.6,190.7h32.1v-11.6h-32.1L300.6,190.7z"/>
	<rect x="177.9" y="347.9" class="st5_credit-card-39" width="115.8" height="18.9"/>
	<path class="st1_credit-card-39" d="M293.7,368.6H178c-1,0-1.9-0.8-1.9-1.9v-18.9c0-1,0.8-1.9,1.8-1.9c0,0,0,0,0,0h115.7c1,0,1.9,0.8,1.9,1.9v18.9&#xA;&#9;&#9;C295.6,367.7,294.8,368.6,293.7,368.6C293.7,368.6,293.7,368.6,293.7,368.6z M179.8,364.9h112.1v-15.1H179.8V364.9z"/>
	<rect x="171.5" y="366.7" class="st2_credit-card-39 targetColor" width="128.7" height="43.4" style="fill: rgb(104, 225, 253);"/>
	<path class="st1_credit-card-39" d="M300.2,412H171.5c-1,0-1.9-0.8-1.9-1.9v-43.4c0-1,0.8-1.9,1.8-1.9c0,0,0,0,0,0h128.7c1,0,1.9,0.8,1.9,1.9l0,0&#xA;&#9;&#9;v43.4C302,411.2,301.2,412,300.2,412z M173.4,408.3h125v-39.7h-125V408.3z"/>
	<path class="st0_credit-card-39" d="M200.3,254.8c0,0,21.1-35,25.1-43.8s11-48.5,28.2-49.8s22,21.1,15,49.4s-12.8,46.7-12.8,82.4"/>
	<path class="st1_credit-card-39" d="M255.8,294.9c-1,0-1.8-0.9-1.8-1.9c0-32.3,4.7-50.9,10.7-74.4c0.7-2.7,1.4-5.5,2.1-8.4&#xA;&#9;&#9;c4.8-19.1,3.9-35.5-2.3-42.8c-2.6-3.1-6.7-4.7-10.7-4.2c-12.1,0.9-19.2,24.7-23.4,38.9c-0.9,3.3-2,6.6-3.2,9.8&#xA;&#9;&#9;c-4,8.8-24.4,42.5-25.2,44c-0.5,0.9-1.6,1.2-2.5,0.8s-1.2-1.6-0.8-2.5c0-0.1,0.1-0.1,0.1-0.2c0.2-0.4,21.1-35,25-43.6&#xA;&#9;&#9;c1.2-3.1,2.2-6.2,3.1-9.4c4.8-16.1,12-40.4,26.7-41.5c5.3-0.6,10.4,1.5,13.8,5.6c7,8.4,8.2,25.6,3.1,46.1c-0.7,2.9-1.4,5.7-2.1,8.4&#xA;&#9;&#9;c-5.9,23.3-10.6,41.7-10.6,73.5C257.6,294.1,256.8,294.9,255.8,294.9z"/>
	<circle class="st1_credit-card-39" cx="280.2" cy="388.8" r="6.3"/>
	<path class="st1_credit-card-39" d="M280.2,397c-4.5,0-8.1-3.6-8.1-8.1c0-4.5,3.6-8.1,8.1-8.1s8.1,3.6,8.1,8.1c0,0,0,0,0,0&#xA;&#9;&#9;C288.3,393.3,284.7,397,280.2,397z M280.2,384.4c-2.4,0-4.4,2-4.4,4.4s2,4.4,4.4,4.4c2.4,0,4.4-2,4.4-4.4&#xA;&#9;&#9;C284.6,386.4,282.6,384.4,280.2,384.4C280.2,384.4,280.2,384.4,280.2,384.4L280.2,384.4z"/>
</g>
</svg>