<?xml version="1.0" encoding="utf-8"?>
<!-- Generator: Adobe Illustrator 27.5.0, SVG Export Plug-In . SVG Version: 6.00 Build 0)  -->
<svg version="1.1" xmlns="http://www.w3.org/2000/svg" xmlns:xlink="http://www.w3.org/1999/xlink" x="0px" y="0px"
	 viewBox="0 0 1122 1122" style="enable-background:new 0 0 1122 1122;" xml:space="preserve">
<g id="Bg">
	<rect style="fill:#FFFFFF;" width="1122" height="1122"/>
</g>
<g id="Object">
	<g>
		<path style="fill:none;" d="M736.046,509.585v-12.149c0-7.632-5.918-13.857-13.629-15.118c0.49,6.167,0.63,12.162,0.509,17.951
			c0.121,2.157,0.327,4.267,0.327,6.451c0,6.137-0.484,12.183-1.241,18.145C729.928,523.78,736.046,517.389,736.046,509.585z"/>
		<path style="fill:none;" d="M462.603,643.021c3.462-0.252,6.935-0.506,10.476-0.517
			C469.55,642.534,466.064,642.739,462.603,643.021z"/>
		<path style="fill:none;" d="M643.523,427.885c0,0-154.213,35.562-210.394,39.654c-1.61,0.112-3.135,0.157-4.599,0.19
			c-2.058,6.294-3.728,12.73-4.781,19.37c-1.023,6.421-1.719,12.933-1.719,19.621c0,4.754,0.303,9.46,0.823,14.101
			c0.908,7.928,2.597,15.641,4.915,23.083c17.006,54.429,70.24,94.303,133.181,94.303c62.942,0,116.164-39.874,133.163-94.285
			c2.343-7.46,4.031-15.155,4.927-23.086c0.539-4.657,0.835-9.347,0.835-14.117c0-6.699-0.696-13.2-1.712-19.635
			c-0.49-2.957-1.15-5.868-1.84-8.779C677.275,464.975,652.855,444.204,643.523,427.885z"/>
		<path style="fill:none;" d="M400.835,481.954c-6.935,1.779-14.997,8.355-14.997,15.481v12.149c0,7.804,6.125,14.196,14.041,15.279
			c-0.738-5.962-1.228-12.007-1.228-18.145c0-5.961,0.563-11.768,1.307-17.527C400.176,486.251,400.176,486.251,400.835,481.954z"/>
		<path style="fill:#616E7D;" d="M331.509,781.84v67.629h458.982V781.84c0-35.707-13.799-68.152-36.3-92.808
			c14.918-6.342,24.45-12.068,25.304-12.618c1.289-0.805,2.027-2.173,1.919-3.653c-0.109-1.401-0.993-2.708-2.409-3.383
			c-0.472-0.203-38.031-18.19-48.053-42.486c13.181,12.004,28.826,16.931,49.349,20.472c1.598,0.266,3.219-0.252,4.248-1.447
			c1.017-1.12,1.283-2.754,0.672-4.122c-13.768-30.938-28.705-69.786-37.135-106.105c1.858-1.828,3.589-3.795,5.035-5.931
			c3.952-5.84,6.313-12.734,6.313-20.175v-12.149c0-10.24-4.442-19.445-11.523-26.181c-1.477-110.008-85.268-198.723-188.51-198.723
			c-37.316,0-72.11,11.66-101.378,31.692c-11.19,6.31-20.571,14.319-28.668,24.027c-36.022,36.742-58.506,88.511-58.506,145.915
			l0.006,0.284c-5.247,6.355-8.394,14.319-8.394,22.986v12.149c0,12.51,6.56,23.524,16.492,30.387
			c3.001,41.917,11.971,87.171,21.254,122.684C359.088,687.079,331.509,731.251,331.509,781.84z M652.353,674.536
			c-2.125,3.746-49.44,46.643-49.44,46.643l31.858,30.714l-73.763,79.996l-73.799-79.996l31.894-30.714
			c0,0-47.333-42.897-49.445-46.643c-3.789-6.621,29.116-28.762,29.116-28.762l62.233,186.116l62.215-186.116
			C623.224,645.774,656.129,667.916,652.353,674.536z M462.603,643.021c3.462-0.252,6.935-0.506,10.476-0.517
			C469.538,642.515,466.064,642.769,462.603,643.021z M519.891,692.082l82.326-0.641l-41.003,121.773l-1.15,0.018L519.891,692.082z
			 M722.926,500.268c0.121-5.789-0.019-11.784-0.509-17.951c7.711,1.262,13.629,7.486,13.629,15.118v12.149
			c0,7.804-6.119,14.196-14.034,15.279c0.757-5.962,1.241-12.007,1.241-18.145C723.253,504.534,723.047,502.425,722.926,500.268z
			 M423.749,487.098c1.053-6.639,2.723-13.076,4.781-19.37c1.464-0.034,2.99-0.079,4.599-0.19
			c56.182-4.091,210.394-39.654,210.394-39.654c9.332,16.319,33.752,37.09,52.798,50.42c0.69,2.911,1.35,5.822,1.84,8.779
			c1.016,6.436,1.712,12.936,1.712,19.635c0,4.77-0.296,9.46-0.835,14.117c-0.896,7.931-2.584,15.626-4.927,23.086
			c-17,54.41-70.222,94.285-133.163,94.285c-62.941,0-116.175-39.874-133.181-94.303c-2.318-7.441-4.007-15.154-4.915-23.083
			c-0.52-4.642-0.823-9.347-0.823-14.101C422.029,500.031,422.725,493.519,423.749,487.098z M399.958,489.192
			c-0.744,5.759-1.307,11.565-1.307,17.527c0,6.137,0.49,12.183,1.228,18.145c-7.916-1.083-14.041-7.475-14.041-15.279v-12.149
			c0-7.126,8.061-13.702,14.997-15.481C400.176,486.251,400.176,486.251,399.958,489.192z"/>
		<polygon style="fill:#AAD4C8;" points="561.215,813.214 602.217,691.44 519.891,692.082 560.065,813.232 		"/>
		<path style="fill:#FFFFFF;" d="M652.353,674.536c3.776-6.621-29.129-28.762-29.129-28.762L561.009,831.89l73.763-79.996
			l-31.858-30.714C602.913,721.18,650.229,678.283,652.353,674.536z"/>
		<path style="fill:#FFFFFF;" d="M561.009,831.89l-62.233-186.116c0,0-32.905,22.142-29.116,28.762
			c2.112,3.746,49.445,46.643,49.445,46.643l-31.894,30.714L561.009,831.89z"/>
	</g>
</g>
</svg>
